<svg id="Layer_1" data-name="Layer 1" xmlns="http://www.w3.org/2000/svg" viewBox="0 0 443.38 485.99"><defs><style>.cls-1{fill:#ef5b98;}.cls-2{fill:#ed2988;}.cls-3{fill:#f497c0;}.cls-4{fill:#f9c6dc;}.cls-5{fill:#816cb0;}.cls-6{fill:#7156a4;}.cls-7{fill:#a595c8;}.cls-8{fill:#c3b8db;}.cls-9{fill:#ffc753;}.cls-10{fill:#fbae43;}.cls-11{fill:#fee059;}.cls-12{fill:#fef275;}.cls-13{fill:#ffdc64;}.cls-14{fill:#ffc853;}.cls-15{fill:#8dc63f;}.cls-16{fill:#009444;}.cls-17{fill:#f15a29;}.cls-18{fill:#ef4136;}</style></defs><circle class="cls-1" cx="126.49" cy="122.94" r="122.68"/><path class="cls-2" d="M432.16,109.64s34.42,39.84,20.74,101.15c0,0-3.22,26.35-27.91,53.36-2.05,2.24-42.11,53.39-119.9,37.7,0,0-31.62-6.73-57.51-31.9C247.58,270,444.63,305.64,432.16,109.64Z" transform="translate(-207.03 -59.55)"/><path class="cls-3" d="M230.29,187.77a22.33,22.33,0,0,1-17.18-26.47c4.88-23.57,20-67.4,66.16-88.83,0,0,62.22-33.11,120.28,6.67,0,0,29.63,17.42,45.15,51a22.1,22.1,0,0,1-.58,19.88c-3.67,6.71-10.23,13.24-21.3,9.45a22,22,0,0,1-12.22-10.75c-6.51-12.37-26-41.79-66.36-46.61,0,0-54.39-.77-76.6,35.23,0,0-6.84,14.21-7.87,30a22.21,22.21,0,0,1-16,20A28.55,28.55,0,0,1,230.29,187.77Z" transform="translate(-207.03 -59.55)"/><path class="cls-4" d="M240.83,102s-5.56,30.77,32.46,27.7c0,0,23.06-27.1,64.62-27.34s59.55,27.56,59.55,27.56,30.76,3.36,28.6-27.92c0,0-31.33-40-82.23-42.14,0,0-53.62-4.81-90.56,29.45Z" transform="translate(-207.03 -59.55)"/><polygon class="cls-2" points="49.83 196.87 38.93 191.55 28.48 197.69 30.05 185.47 21.08 177.2 32.95 174.97 37.86 163.72 43.62 174.56 55.63 175.88 47.32 184.81 49.83 196.87"/><polygon class="cls-2" points="420.98 221.75 410.08 216.42 399.62 222.57 401.19 210.35 392.23 202.08 404.09 199.85 409.01 188.59 414.77 199.44 426.77 200.75 418.47 209.68 420.98 221.75"/><circle class="cls-5" cx="320.7" cy="257.6" r="122.68"/><path class="cls-6" d="M626.37,244.3s34.42,39.84,20.74,101.15c0,0-3.22,26.35-27.91,53.36-2.05,2.24-42.11,53.39-119.9,37.69,0,0-31.62-6.72-57.51-31.89C441.79,404.61,638.84,440.3,626.37,244.3Z" transform="translate(-207.03 -59.55)"/><path class="cls-7" d="M424.5,322.43A22.33,22.33,0,0,1,407.32,296c4.88-23.57,20-67.4,66.16-88.83,0,0,62.22-33.11,120.28,6.67,0,0,29.63,17.42,45.16,51a22.16,22.16,0,0,1-.58,19.88c-3.68,6.71-10.24,13.24-21.31,9.45a22.06,22.06,0,0,1-12.22-10.75c-6.51-12.37-26-41.8-66.36-46.61,0,0-54.38-.77-76.6,35.23,0,0-6.84,14.21-7.87,30a22.21,22.21,0,0,1-16,20A28.55,28.55,0,0,1,424.5,322.43Z" transform="translate(-207.03 -59.55)"/><path class="cls-8" d="M435,236.61s-5.56,30.77,32.46,27.7c0,0,23.06-27.1,64.62-27.34s59.56,27.55,59.56,27.55,30.75,3.37,28.59-27.91c0,0-31.32-40-82.23-42.14,0,0-53.62-4.81-90.56,29.45Z" transform="translate(-207.03 -59.55)"/><polygon class="cls-2" points="246.23 334.43 235.34 329.11 224.88 335.25 226.45 323.03 217.48 314.77 229.35 312.54 234.27 301.28 240.03 312.13 252.03 313.44 243.73 322.37 246.23 334.43"/><polygon class="cls-2" points="222.96 327.45 212.06 322.13 201.61 328.27 203.18 316.05 194.21 307.78 206.08 305.55 210.99 294.3 216.75 305.14 228.76 306.45 220.45 315.38 222.96 327.45"/><circle class="cls-9" cx="122.68" cy="363.3" r="122.68"/><path class="cls-10" d="M428.35,350s34.42,39.84,20.74,101.16c0,0-3.21,26.34-27.9,53.35-2.05,2.24-42.11,53.39-119.9,37.7,0,0-31.62-6.73-57.52-31.89C243.77,510.32,440.83,546,428.35,350Z" transform="translate(-207.03 -59.55)"/><path class="cls-11" d="M226.48,428.13a22.34,22.34,0,0,1-17.18-26.47c4.88-23.57,20-67.4,66.16-88.82,0,0,62.23-33.12,120.28,6.66,0,0,29.64,17.42,45.16,51a22.1,22.1,0,0,1-.58,19.88c-3.67,6.71-10.23,13.24-21.31,9.45A22.09,22.09,0,0,1,406.79,389c-6.5-12.37-26-41.79-66.36-46.61,0,0-54.38-.77-76.59,35.23,0,0-6.84,14.21-7.88,30a22.18,22.18,0,0,1-16,20A28.54,28.54,0,0,1,226.48,428.13Z" transform="translate(-207.03 -59.55)"/><path class="cls-12" d="M237,342.31s-5.56,30.77,32.45,27.7c0,0,23.07-27.1,64.63-27.34s59.55,27.56,59.55,27.56,30.76,3.36,28.6-27.92c0,0-31.33-40-82.24-42.14,0,0-53.61-4.81-90.56,29.45Z" transform="translate(-207.03 -59.55)"/><polygon class="cls-6" points="52.02 437.61 41.13 432.29 30.67 438.43 32.24 426.21 23.27 417.94 35.14 415.71 40.05 404.46 45.82 415.3 57.82 416.61 49.52 425.55 52.02 437.61"/><path class="cls-2" d="M379.86,450.23c-2.45,22.4-21.88,36.57-49.53,36.57-17.68,0-34.3-6.12-41.83-15.4-7.52-8.92-5.77-28.7,11.55-28.87,20.3-.36,14.88,27.82,28,30.27,8.05,1.4,14.18-7.17,14.18-20.47,0-15.93-4.55-22.75-20-23.11-4.2-.17-7.7-1.75-7.7-7.17,0-4.72,4.72-9.1,22.4-30.1H323c-16.45,0-15.4,14.52-26.43,14.52h-.35c-3.67,0-7-2.8-6.3-8.92.7-5.6,2.63-21.18,3.68-29.93.7-5.6,3.5-8.05,8.4-8.05,6.12,0,8.22,3,17.5,3h44.63c13.12,0,14.35,11.37,8.57,18.55-6.82,8.4-15.75,19.25-26.25,32.37C370.41,416.62,382,431,379.86,450.23Z" transform="translate(-207.03 -59.55)"/><path class="cls-1" d="M572.57,347.37c-.53,5.6-2.45,19.07-3.68,25.55-1.22,5.42-3.5,7.87-8.4,7.87-6.12,0-8.22-3-17.5-3H490.84c-6.65,0-8.58-4.38-8.58-9.28,0-5.07,1.93-7.87,5.95-11.72,25.38-25.9,40.08-42.53,42.36-65.8,1.4-16.28-1.4-25-8.75-24.15-10.5,1.22-3.33,36.57-29.4,29.05-11.56-3.33-11.21-19.25-3.5-28,7.87-9.28,21.17-14.35,36.57-14.35,23.8,0,45.15,11.37,43.4,36.57-1.92,26.08-28,48.83-53.37,65.1h21.7c16.45,0,16.8-16.8,28.7-16.8h.35C569.94,338.44,573.27,341.42,572.57,347.37Z" transform="translate(-207.03 -59.55)"/><path class="cls-11" d="M358.57,237.21v.35c0,6.47-10.85,8.22-23.63,8.22s-23.62-1.75-23.62-8.22v-.35c0-6,5.77-8.05,5.77-16.63v-65.1c0-8.57-10.32-7.18-10.32-13.13V142c0-7.35,11-13.47,25.37-18.55,11.2-4.2,20.65-3.67,20.65,5.6v91.53C352.79,229.16,358.57,231.26,358.57,237.21Z" transform="translate(-207.03 -59.55)"/><path class="cls-13" d="M535.16,397.16l7.37,16.66,18.18,1.86c3.62.37,5,4.84,2.32,7.52l-14.09,14.12,2.29,19.11c.43,3.58-3.36,6.38-6.5,4.8L528.49,453l-16.77,9.61a4.2,4.2,0,0,1-6.29-4.56l4-18.85L496.6,426.33c-2.48-2.48-1-6.94,2.58-7.63L518.13,415l9.13-17.71C529,393.91,533.69,393.84,535.16,397.16Z" transform="translate(-207.03 -59.55)"/><path class="cls-14" d="M561.12,415.72h0a14.88,14.88,0,0,0-13.24,6c-7.13,9.4-21.47,25.47-37.81,28.1a4.53,4.53,0,0,0-3.63,3.52l-1.1,5.18a4,4,0,0,0,6,4.36l15.16-8.69a4.15,4.15,0,0,1,3.94-.15l14.63,7.4a4.44,4.44,0,0,0,6.21-4.58l-2.09-17.37a4.5,4.5,0,0,1,1.31-3.69l12.83-12.86C565.89,420.34,564.57,416.07,561.12,415.72Z" transform="translate(-207.03 -59.55)"/><path class="cls-13" d="M605.79,383.11l9.93,4.91,9.52-5.74a2.64,2.64,0,0,1,4,2.59l-1.43,11.51,8.4,7.86a2.65,2.65,0,0,1-1.31,4.53l-11,2.15-4.45,10.44a2.66,2.66,0,0,1-4.79.2l-5.26-10-11.14-1.2a2.64,2.64,0,0,1-1.66-4.41l7.76-8.54L602,386A2.65,2.65,0,0,1,605.79,383.11Z" transform="translate(-207.03 -59.55)"/><path class="cls-14" d="M625.45,382.16h0a8.54,8.54,0,0,0-4.14,7.49c.14,6.86-.68,19.36-7.59,26.47a2.52,2.52,0,0,0-.41,2.91l1.45,2.75a2.53,2.53,0,0,0,4.57-.19l4-9.43a2.54,2.54,0,0,1,1.85-1.5l9.92-1.93a2.53,2.53,0,0,0,1.26-4.33l-7.65-7.14a2.51,2.51,0,0,1-.77-2.15l1.3-10.49A2.52,2.52,0,0,0,625.45,382.16Z" transform="translate(-207.03 -59.55)"/><path class="cls-15" d="M484.63,142.47l9.93,4.91,9.52-5.74a2.65,2.65,0,0,1,4,2.59l-1.44,11.51,8.41,7.86a2.65,2.65,0,0,1-1.32,4.53l-11,2.15-4.45,10.44a2.66,2.66,0,0,1-4.79.2l-5.25-10-11.14-1.2a2.64,2.64,0,0,1-1.67-4.41l7.76-8.54-2.33-11.36A2.66,2.66,0,0,1,484.63,142.47Z" transform="translate(-207.03 -59.55)"/><path class="cls-16" d="M504.29,141.52h0a8.55,8.55,0,0,0-4.13,7.49c.13,6.86-.68,19.36-7.59,26.47a2.48,2.48,0,0,0-.41,2.91l1.44,2.75a2.53,2.53,0,0,0,4.57-.19l4-9.43a2.52,2.52,0,0,1,1.85-1.5l9.91-1.93a2.53,2.53,0,0,0,1.26-4.33l-7.64-7.14a2.51,2.51,0,0,1-.78-2.15L508.11,144A2.53,2.53,0,0,0,504.29,141.52Z" transform="translate(-207.03 -59.55)"/><path class="cls-17" d="M219.56,285.48l9.93,4.91,9.52-5.73a2.64,2.64,0,0,1,4,2.58l-1.44,11.52,8.41,7.85a2.65,2.65,0,0,1-1.32,4.54l-11,2.14-4.45,10.44a2.65,2.65,0,0,1-4.79.2l-5.25-10L212,312.7a2.63,2.63,0,0,1-1.67-4.4l7.76-8.55-2.33-11.35A2.66,2.66,0,0,1,219.56,285.48Z" transform="translate(-207.03 -59.55)"/><path class="cls-18" d="M239.22,284.53h0a8.56,8.56,0,0,0-4.14,7.5c.14,6.85-.67,19.35-7.58,26.46a2.5,2.5,0,0,0-.42,2.91l1.45,2.76a2.53,2.53,0,0,0,4.57-.2l4-9.43A2.58,2.58,0,0,1,239,313l9.91-1.93a2.52,2.52,0,0,0,1.26-4.32l-7.64-7.15a2.51,2.51,0,0,1-.78-2.15L243,287A2.53,2.53,0,0,0,239.22,284.53Z" transform="translate(-207.03 -59.55)"/></svg>