<svg id="Layer_1" data-name="Layer 1" xmlns="http://www.w3.org/2000/svg" viewBox="0 0 357.75 370.88"><defs><style>.cls-1{fill:#33b667;}.cls-2{fill:#f5831f;}.cls-3{fill:#e60d76;}.cls-4{fill:#f38ebb;}.cls-5{fill:#8fc640;}.cls-6{fill:#2075bc;}.cls-7{fill:#29aae1;}.cls-8{fill:#be202e;}.cls-9{fill:#c6daf1;}.cls-10{opacity:0.44;}.cls-11{fill:#ef4237;}.cls-12{fill:#a1b8d8;}.cls-13{fill:#fee3bb;}.cls-14{fill:#f89521;}.cls-15{fill:#ef3f3e;}.cls-16{fill:#e5f2fc;}.cls-17{fill:#fbb042;}.cls-18{fill:#fdd08c;}</style></defs><path class="cls-1" d="M358.55,456.33a12.37,12.37,0,0,1,.67,4.34,16.56,16.56,0,0,1-3.07,10,20,20,0,0,1-7.19,5.92,32.35,32.35,0,0,1-8.41,2.8,40.7,40.7,0,0,1-6.64.74c-1.63,0-3.77-.13-6.41-.37a38.28,38.28,0,0,1-8.64-2,40.37,40.37,0,0,1-9.7-5,46.2,46.2,0,0,1-9.81-9.46c-1-1.27-1.88-2.41-2.73-3.44s-1.64-1.92-2.34-2.69-1.38-1.46-2-2.06-1.19-1.11-1.67-1.54a14.37,14.37,0,0,0-1.34-1.05,6.7,6.7,0,0,0-1.11-.64,5.81,5.81,0,0,0-1.28-.32,1.31,1.31,0,0,1-.56-.1H286a65.44,65.44,0,0,1,6.69-3.75,41.3,41.3,0,0,1,6.64-2.44,18.73,18.73,0,0,1,7.19-.58,13,13,0,0,1,7.69,3.81,49.18,49.18,0,0,1,5.69,7,36,36,0,0,0,5.57,6.87,17.64,17.64,0,0,0,10.81,4.12c4,.14,7.06-1.16,9.15-3.91a4.61,4.61,0,0,0-.23-5.45,6.43,6.43,0,0,0-4.9-2.8,7.79,7.79,0,0,0-2.34.32,6.25,6.25,0,0,0-1.68.79,9,9,0,0,0-1,.8,1.18,1.18,0,0,1-.22.31h-.11v.11l-2.57-4,.34-.32,1-.63a24,24,0,0,0,2.73-2.54,13.94,13.94,0,0,0,2.4-3.38,9.3,9.3,0,0,0,.5-6.77,5.29,5.29,0,0,0-4.63-3.59q-5.13-.21-6.74,1.8a3.86,3.86,0,0,0-.84,4,2.33,2.33,0,0,0,.73,1.17,2.29,2.29,0,0,0,1.11.53,6.94,6.94,0,0,0,1.17.1,3.07,3.07,0,0,0,.89-.1l.34-.11-3.12,9.2h-.12a.35.35,0,0,1-.22-.11,2.27,2.27,0,0,1-.67-.1,13.36,13.36,0,0,1-2.45-.85,12,12,0,0,1-2.9-1.85,9.52,9.52,0,0,1-2.4-3.17,11,11,0,0,1-.94-4.81q.66-7.08,7.69-10.78t16.39-.32a13.62,13.62,0,0,1,5.63,4,9.81,9.81,0,0,1,2,4.81,12.77,12.77,0,0,1-.27,4.65,30.9,30.9,0,0,1-1.12,3.54,7.39,7.39,0,0,0-.44,1,.29.29,0,0,0-.12.21l-.11.11v.1h.11a.5.5,0,0,0,.34.11,1.65,1.65,0,0,0,.67.1,24.21,24.21,0,0,1,2.78,1.06,17,17,0,0,1,2.35,1.38A5.47,5.47,0,0,0,357.1,448q1.11-2.75-1.78-8.46c-.38-.7-.75-1.37-1.12-2a44,44,0,0,1-4.46-9.62,7,7,0,0,1,3.79-7.5,7.36,7.36,0,0,1,5.24-.42l10.59,2.32v.11h-.11a1.18,1.18,0,0,0-.22.31,6.41,6.41,0,0,0-.95,1.27,8.41,8.41,0,0,0-.83,2.17,8.08,8.08,0,0,0-.12,3.07,14.25,14.25,0,0,0,1.23,4A17.19,17.19,0,0,1,369.48,445a16.13,16.13,0,0,1-7.47,9.73A16.7,16.7,0,0,1,358.55,456.33Z" transform="translate(-246.99 -109.23)"/><path class="cls-2" d="M382.24,454.48a6.72,6.72,0,0,1-.69-1.89,9.73,9.73,0,0,1-.28-2.34,5,5,0,0,1,1-3.41,3.37,3.37,0,0,1,2.61-1.07h21.21c.21.52.42,1.16.64,1.92a8.48,8.48,0,0,1,.33,2.37,4.87,4.87,0,0,1-1,3.35,3.26,3.26,0,0,1-2.54,1.07Zm0,12.94a6.84,6.84,0,0,1-.69-1.89,9.85,9.85,0,0,1-.28-2.34,5,5,0,0,1,1-3.41,3.34,3.34,0,0,1,2.61-1.07h21.21a20.12,20.12,0,0,1,.64,1.91A8.5,8.5,0,0,1,407,463a4.85,4.85,0,0,1-1,3.34,3.24,3.24,0,0,1-2.54,1.08Z" transform="translate(-246.99 -109.23)"/><path class="cls-2" d="M446.73,460.4a3.49,3.49,0,0,1-3-1.47,6.85,6.85,0,0,1-1.06-4.06,8.31,8.31,0,0,1,.06-1,9.61,9.61,0,0,1,.18-1q4.36-.92,6.22-2.57a5.14,5.14,0,0,0,1.85-3.93,4,4,0,0,0-1-2.77,3.8,3.8,0,0,0-3-1.13,3.89,3.89,0,0,0-2.88,1,3.62,3.62,0,0,0-1.06,2.72,7.31,7.31,0,0,0,.12,1.4,6.46,6.46,0,0,0,.36,1.21,4.48,4.48,0,0,1-1.7,1.55,5.46,5.46,0,0,1-2.85.72,5.08,5.08,0,0,1-4.09-1.76,6.69,6.69,0,0,1-1.48-4.48,9.22,9.22,0,0,1,1-4.29,10.41,10.41,0,0,1,2.76-3.38,13.16,13.16,0,0,1,4.18-2.24,16.49,16.49,0,0,1,5.27-.82,15.69,15.69,0,0,1,5.55.95,13.23,13.23,0,0,1,4.33,2.6,11.86,11.86,0,0,1,2.82,3.83,11.12,11.12,0,0,1,1,4.71,4.53,4.53,0,0,0,3-1.52,5.37,5.37,0,0,0,1.33-3.87,9,9,0,0,0-.33-2.34A7.55,7.55,0,0,0,463,436a11.09,11.09,0,0,0-2.46-2.34,16.83,16.83,0,0,0-4-2l-8.6-3.25a17.39,17.39,0,0,1-7.1-4.46,8.92,8.92,0,0,1-2.18-5.95,6.62,6.62,0,0,1,1.46-4.55,4.81,4.81,0,0,1,3.75-1.62,5.84,5.84,0,0,1,2.55.52,4.86,4.86,0,0,1,1.58,1.1c-.09.44-.15.82-.19,1.14a11.56,11.56,0,0,0-.06,1.33q0,3.84,4.31,5.53l6.42,2.54q8.07,3.18,11.55,7.5a14.76,14.76,0,0,1,3.48,9.46,14.28,14.28,0,0,1-1,5.36,11.89,11.89,0,0,1-2.75,4.19,12.76,12.76,0,0,1-4.31,2.74,15.54,15.54,0,0,1-5.67,1c-.4,0-.8,0-1.21-.06a7.87,7.87,0,0,1-1.09-.2l-.42.52a14.06,14.06,0,0,1,3.06,3.7,10.34,10.34,0,0,1,1.12,5.07,12.24,12.24,0,0,1-4.52,9.72,14.72,14.72,0,0,1-4.94,2.64,20.38,20.38,0,0,1-6.18.9,23.08,23.08,0,0,1-6.91-1.07,22,22,0,0,1-6.45-3.25,23.17,23.17,0,0,1-5.37-5.56,26.88,26.88,0,0,1-3.69-8,23.62,23.62,0,0,1-.73-3.48,31.33,31.33,0,0,1-.24-4.12,7.62,7.62,0,0,1,1.45-5.08,4.74,4.74,0,0,1,3.76-1.68,6.22,6.22,0,0,1,2.12.32,5.67,5.67,0,0,1,1.58.85v2.21a28,28,0,0,0,1.27,8.87,20.7,20.7,0,0,0,3.3,6.34,13.83,13.83,0,0,0,4.61,3.8,11.81,11.81,0,0,0,5.24,1.26,6.24,6.24,0,0,0,4.61-1.52,5,5,0,0,0,1.51-3.67,4.12,4.12,0,0,0-1.45-3.32,8.67,8.67,0,0,1-1.79.71A6.49,6.49,0,0,1,446.73,460.4Z" transform="translate(-246.99 -109.23)"/><path class="cls-2" d="M478.25,465.59a11,11,0,0,1-1.45-3.7,19.87,19.87,0,0,1-.49-4.35c0-.35,0-.66,0-.92s.05-.49.09-.71l2-1c.73-.34,1.47-.68,2.21-1s1.49-.64,2.22-.94l2-.85-7.7-3a4.39,4.39,0,0,1-1.73-1.11,3.21,3.21,0,0,1-.57-2.14,5.7,5.7,0,0,1,.24-1.69,7.9,7.9,0,0,1,.73-1.63h-2.49a3,3,0,0,1-2.27-.91,4.17,4.17,0,0,1-.88-3,7.28,7.28,0,0,1,.3-2.14,14.55,14.55,0,0,1,.61-1.62h41.82a3,3,0,0,1,2.27.91,4.17,4.17,0,0,1,.88,3,7.28,7.28,0,0,1-.3,2.14,12.8,12.8,0,0,1-.61,1.62h-7.33v33.29a4.76,4.76,0,0,1-2,1.26,9.21,9.21,0,0,1-3.24.49,3.79,3.79,0,0,1-.82-.07,5.13,5.13,0,0,1-.58-.13q-3.27-2.13-6.15-3.8t-5.64-3.08c-1.84-1-3.66-1.83-5.48-2.61S480.23,466.38,478.25,465.59Zm5.09-23,3.43,1.57,4.06,1.88,4.09,1.92c1.33.63,2.52,1.18,3.57,1.66v-7Zm15.4,23.34c-.08-1.13-.15-2.34-.19-3.64s-.06-2.4-.06-3.32v-1l-4.91-2.14c-1.17.74-2.34,1.42-3.51,2.05s-2.28,1.24-3.33,1.85q2.47,1,5.78,2.76T498.74,465.92Z" transform="translate(-246.99 -109.23)"/><path class="cls-2" d="M552.86,434.92a3,3,0,0,1,2.27.91,4.17,4.17,0,0,1,.88,3,7.28,7.28,0,0,1-.3,2.14,11.42,11.42,0,0,1-.61,1.62h-7.33V475.8a4.71,4.71,0,0,1-2,1.27,9.46,9.46,0,0,1-3.24.48,4.67,4.67,0,0,1-.82-.06l-.58-.13c-2-1.26-3.86-2.38-5.63-3.38s-3.58-1.93-5.4-2.8-3.69-1.69-5.63-2.5-4-1.61-6.31-2.43a11.32,11.32,0,0,1-1.45-3.71,19.83,19.83,0,0,1-.49-4.36q0-.51,0-.9a6.73,6.73,0,0,1,.09-.72c.65-.43,1.36-.87,2.13-1.3a24.65,24.65,0,0,1,2.36-1.17,11.9,11.9,0,0,1-2.55-1.14,9.21,9.21,0,0,1-2.27-1.88,9,9,0,0,1-1.61-2.73,10.38,10.38,0,0,1-.6-3.67,10.86,10.86,0,0,1,.82-4.29,9.12,9.12,0,0,1,2.33-3.32,11,11,0,0,1,3.58-2.14,12.9,12.9,0,0,1,4.6-.79,11.17,11.17,0,0,1,7.22,2.12,6.38,6.38,0,0,1,2.6,5.1,4.15,4.15,0,0,1-1.21,3.32,4.69,4.69,0,0,1-3.15,1,5.9,5.9,0,0,1-1.52-.17,5.83,5.83,0,0,1-1-.36,2.84,2.84,0,0,0,.06-.42v-.29a2.19,2.19,0,0,0-.63-1.69,2.38,2.38,0,0,0-1.67-.58,2.26,2.26,0,0,0-1.73.77,3.05,3.05,0,0,0-.69,2.08,3.69,3.69,0,0,0,1.24,3,4.67,4.67,0,0,0,3.18,1.07,7.32,7.32,0,0,0,2-.25c.59-.18,1.22-.4,1.91-.66q1.58-.51,3.42-1.29c1.24-.52,2.32-1,3.25-1.3v-4.1A7.15,7.15,0,0,1,540,436.8a5.5,5.5,0,0,1,4.52-1.88Zm-14.18,31c-.08-1.13-.14-2.34-.18-3.64s-.06-2.4-.06-3.32v-4.8c-1,.3-2,.69-3.19,1.17s-2.3,1-3.45,1.49-2.24,1-3.27,1.56-1.91,1-2.64,1.43q1.4.53,3,1.2c1.09.46,2.21.95,3.37,1.46s2.27,1.09,3.36,1.7S537.75,465.36,538.68,465.92Z" transform="translate(-246.99 -109.23)"/><path class="cls-3" d="M551.81,283.34q2.82,8.54,2.81,20.59-.47,29.11-12.87,47.45T511.54,379.5a123.54,123.54,0,0,1-35.35,13.31q-17.55,3.49-27.86,3.51a268,268,0,0,1-26.92-1.76q-16.64-1.74-36.29-9.29t-40.74-23.85q-21.08-16.31-41.2-44.94-6.09-9-11.47-16.32t-9.84-12.81q-4.46-5.52-8.43-9.79t-7-7.28a65.81,65.81,0,0,0-5.62-5,26.9,26.9,0,0,0-4.68-3,19.82,19.82,0,0,0-5.39-1.51,4.85,4.85,0,0,1-2.34-.5H247a263.36,263.36,0,0,1,28.09-17.83,160.89,160.89,0,0,1,27.86-11.55,69.44,69.44,0,0,1,30.2-2.76,52.51,52.51,0,0,1,32.31,18.08,228.29,228.29,0,0,1,23.88,33.14A170.16,170.16,0,0,0,412.75,312q20.12,18.59,45.42,19.58T496.56,313q7-13.54-.94-25.86T475,273.8a29.31,29.31,0,0,0-9.83,1.5,24,24,0,0,0-7,3.77,41.38,41.38,0,0,0-4.22,3.77,5.73,5.73,0,0,1-.94,1.5h-.46v.5l-10.77-19.08,1.4-1.5,4.22-3a112.62,112.62,0,0,0,11.47-12.05,66.52,66.52,0,0,0,10.06-16.07Q475.49,215.56,471,201t-19.43-17.07q-21.54-1-28.33,8.54t-3.51,19.08a11.44,11.44,0,0,0,3,5.52,9.21,9.21,0,0,0,4.69,2.51,25.21,25.21,0,0,0,4.91.51,11.29,11.29,0,0,0,3.75-.51l1.4-.5-13.11,43.69H424a1.3,1.3,0,0,1-.93-.5,8.37,8.37,0,0,1-2.81-.5,51.68,51.68,0,0,1-22.48-12.81,44.34,44.34,0,0,1-10.06-15.06q-4-9.28-4-22.85,2.82-33.65,32.31-51.22t68.84-1.51q16.38,8,23.64,19.08a50.4,50.4,0,0,1,8.43,22.85,68.69,68.69,0,0,1-1.17,22.1,153.9,153.9,0,0,1-4.68,16.82,39.17,39.17,0,0,0-1.88,4.52,1.48,1.48,0,0,0-.46,1l-.47.5v.51h.47a1.81,1.81,0,0,0,1.4.5,6.06,6.06,0,0,0,2.81.5,87.2,87.2,0,0,1,11.71,5,71.31,71.31,0,0,1,9.83,6.53q7.49-4,11.24-14.56,4.66-13-7.5-40.17-2.34-5-4.68-9.55-14-27.1-18.73-45.69-2.34-24.1,15.92-35.65a27.91,27.91,0,0,1,22-2l44.48,11v.51h-.47a5.92,5.92,0,0,0-.93,1.5,28.06,28.06,0,0,0-4,6A41.84,41.84,0,0,0,588.34,140a44,44,0,0,0-.47,14.57A74,74,0,0,0,593,173.37a91.63,91.63,0,0,1,4.68,56.24q-6.56,28.62-31.37,46.2A66.22,66.22,0,0,1,551.81,283.34Z" transform="translate(-246.99 -109.23)"/><path class="cls-4" d="M596.76,122.15s-10.82,7.37-8.89,32.38c0,0,2.51,17.74,7.39,24.25,0,0,6.74,23.75,4.85,33.32,0,0-1.5,20.3-8.78,34.09,0,0-4.35,19.91-39.52,37.15,0,0-16-1.92-11-17.62,0,0,35.61-13.4,37.15-45.19,0,0-1.15-36-12.64-51.7s-28-39.15-19.53-59.6a75.18,75.18,0,0,1,11.68,2.53l39.79,9.88Z" transform="translate(-246.99 -109.23)"/><path class="cls-4" d="M247,260.24s11.63.81,19.43,10l15.45,17.07,9.83,12.81,13.16,19.37,9.58,12.06s23,28.35,37.91,35.43c0,0,31,25.76,72.77,27.75,0,0,68.55,13,110.3-35.6,0,0,28.58-25.66,16.39-75.83,0,0-17.16-1.92-11-17.62,0,0-21.07-7.28-29.49,17.62,0,0,16.85,52.08-21.07,67.79,0,0-68.93,27.95-118-38.69C372.27,312.44,311.67,230.24,247,260.24Z" transform="translate(-246.99 -109.23)"/><polygon class="cls-5" points="260.56 208.64 318.83 208.64 318.83 287.53 260.56 287.53 260.56 222.99 260.56 208.64"/><path class="cls-5" d="M566.32,397.26H507.05V317.38h59.27Zm-58.27-1h57.27V318.38H508.05Z" transform="translate(-246.99 -109.23)"/><rect class="cls-6" x="260.56" y="222.99" width="58.27" height="49.78"/><rect class="cls-7" x="289.69" y="222.99" width="29.13" height="49.78"/><path class="cls-8" d="M539.73,346.89V355h7.94v4.73h-7.94v8.1h-4.68v-8.1h-7.94V355h7.94v-8.11Z" transform="translate(-246.99 -109.23)"/><rect class="cls-9" x="273.28" y="201.47" width="33.78" height="7.17"/><rect class="cls-8" x="267.58" y="175.46" width="45.55" height="26.01"/><g class="cls-10"><polygon class="cls-11" points="290.36 175.66 290.17 201.47 313.13 201.47 313.13 175.46 290.36 175.66"/></g><polygon class="cls-12" points="290.36 208.64 307.06 208.64 307.06 201.47 290.17 201.47 290.36 208.64"/><path class="cls-13" d="M563,342.69,579,324.26s5.05-6.41,11.81-3.09a13.36,13.36,0,0,1,6.55,9.26,15,15,0,0,1-2.84,10.3l-14.34,16.38-2.32,2.74s-5.27,6.64-13.31.95a11.93,11.93,0,0,1-4.48-9.89S560.07,345.3,563,342.69Z" transform="translate(-246.99 -109.23)"/><path class="cls-14" d="M594.33,324l-15.55,17.64,7.53,8.48,8.24-9.41S601.31,332.49,594.33,324Z" transform="translate(-246.99 -109.23)"/><path class="cls-9" d="M570.62,368.34l23.1-.5a10.39,10.39,0,0,1,10.34,7.05s2.14,6.26-1.21,11.7a12.32,12.32,0,0,1-8.55,5.09l-20.55.41-3.39.14s-8,.59-10.05-9.74c0,0-1.23-6.26,3.08-10.53C563.39,372,566.93,368,570.62,368.34Z" transform="translate(-246.99 -109.23)"/><path class="cls-15" d="M604.73,379.65l-22.22.35,0,11.92,11.81-.24S604.33,391.11,604.73,379.65Z" transform="translate(-246.99 -109.23)"/><path class="cls-16" d="M560.55,380.42l22-.42.14-11.92-12,.26s-4.3-.63-8.82,5.65C561.8,374,559.67,377.66,560.55,380.42Z" transform="translate(-246.99 -109.23)"/><path class="cls-17" d="M578.78,341.66l7.53,8.48-8.89,10.22s-4,5.25-11.11,1.5a4.9,4.9,0,0,1-2.87-2.72Z" transform="translate(-246.99 -109.23)"/><rect class="cls-14" x="296.12" y="175.66" width="5.31" height="13.01"/><rect class="cls-14" x="278.59" y="175.46" width="5.31" height="13.01"/><path class="cls-18" d="M563.44,359.14l15.34-17.48-7.46-8.57-8.37,9.6s-3.46,2.92-2.69,10.91C560.26,353.6,561.07,357.87,563.44,359.14Z" transform="translate(-246.99 -109.23)"/><path class="cls-4" d="M551.25,110.17l46,11.47s-11.78,16.8-9.1,29.06c0,0,2.89,19.4,7.13,28.08,0,0,5.37,15.58,5.19,28.86,0,0,.07,20.74-6.63,34.72,0,0-10.67,30.25-42,41,0,0-23.8-1.66-11-17.62l24.25.13L582.14,237l8.94-25.28s-1.28-31.66-1.79-34.21-16.09-34.73-17.36-37.79S551.25,110.17,551.25,110.17Z" transform="translate(-246.99 -109.23)"/></svg>