<svg id="Layer_1" data-name="Layer 1" xmlns="http://www.w3.org/2000/svg" viewBox="0 0 370.09 317.78"><defs><style>.cls-1{fill:#8d6cb0;}.cls-2{fill:#eb0d8c;}.cls-3{fill:#29aae1;}.cls-4{fill:#7fccec;}.cls-5{fill:#ec674c;}.cls-6{fill:#f15b2b;}.cls-7{fill:#fdc75d;}</style></defs><path class="cls-1" d="M314.07,407.16a17.31,17.31,0,0,1-3.46-1.06,12.23,12.23,0,0,1-2.9-1.85,8.92,8.92,0,0,1-2.34-3.17,11.64,11.64,0,0,1-.89-4.81q.56-7.08,7.58-10.78t16.5-.32a13.59,13.59,0,0,1,5.52,4,9.92,9.92,0,0,1,2,4.81,13.71,13.71,0,0,1-.23,4.65,23.08,23.08,0,0,1-1.84,4.92,20.57,20.57,0,0,1,4,1.26,14,14,0,0,1,3.23,2.12,12.24,12.24,0,0,1,2.79,3.54,11.13,11.13,0,0,1,1.17,5.34,17.3,17.3,0,0,1-3.12,10,19.47,19.47,0,0,1-7.13,5.92,32,32,0,0,1-8.48,2.8,41.54,41.54,0,0,1-6.69.74q-2.44,0-6.35-.37a39.19,39.19,0,0,1-8.64-2,40,40,0,0,1-9.76-5,44,44,0,0,1-9.69-9.46q-1.46-1.91-2.74-3.43c-.85-1-1.65-1.92-2.39-2.7l-2-2.06a21.67,21.67,0,0,0-1.67-1.53,15.56,15.56,0,0,0-1.73-1.22,8.31,8.31,0,0,0-2.95-.9,71.7,71.7,0,0,1,6.8-3.75,41.51,41.51,0,0,1,6.57-2.43,18.24,18.24,0,0,1,7.14-.58,13.07,13.07,0,0,1,7.8,3.8,44,44,0,0,1,5.58,7,42.94,42.94,0,0,0,5.57,6.87,18.14,18.14,0,0,0,10.93,4.12q6,.23,9-3.91a4.59,4.59,0,0,0-.23-5.44,6.31,6.31,0,0,0-4.79-2.8,8.25,8.25,0,0,0-2.45.31,5.77,5.77,0,0,0-1.67.8,7.75,7.75,0,0,0-1.34,1.21l-2.57-4a35.62,35.62,0,0,0,4.13-3.48,13.37,13.37,0,0,0,2.45-3.39,9.78,9.78,0,0,0,.45-6.76,5.18,5.18,0,0,0-4.57-3.6q-5.13-.21-6.8,1.8a3.82,3.82,0,0,0-.9,4,3.38,3.38,0,0,0,.84,1.16,2.34,2.34,0,0,0,1.11.53,6.94,6.94,0,0,0,1.17.1,3.78,3.78,0,0,0,1.23-.21Z" transform="translate(-224.75 -118.54)"/><path class="cls-2" d="M364.08,410.64a6.64,6.64,0,0,1-.69-1.88,10.38,10.38,0,0,1-.27-2.34,5,5,0,0,1,1-3.41,3.34,3.34,0,0,1,2.61-1.08h21.22q.3.78.63,1.92a8.49,8.49,0,0,1,.34,2.37,4.91,4.91,0,0,1-1,3.35,3.27,3.27,0,0,1-2.55,1.07Zm0,12.94a6.84,6.84,0,0,1-.69-1.89,10.38,10.38,0,0,1-.27-2.34,5,5,0,0,1,1-3.41,3.37,3.37,0,0,1,2.61-1.07h21.22q.3.78.63,1.92a8.43,8.43,0,0,1,.34,2.37,4.93,4.93,0,0,1-1,3.35,3.3,3.3,0,0,1-2.55,1.07Z" transform="translate(-224.75 -118.54)"/><path class="cls-2" d="M404.15,407.2a7.61,7.61,0,0,1,1.45-5.07,4.73,4.73,0,0,1,3.76-1.69,6.43,6.43,0,0,1,2.12.32,5.67,5.67,0,0,1,1.58.85v2.21a27.9,27.9,0,0,0,1.27,8.87,20.47,20.47,0,0,0,3.3,6.34,13.6,13.6,0,0,0,4.61,3.8,11.72,11.72,0,0,0,5.24,1.27,6.24,6.24,0,0,0,4.61-1.53,5,5,0,0,0,1.52-3.67,4.14,4.14,0,0,0-1.46-3.32,8.18,8.18,0,0,1-1.79.72,6.8,6.8,0,0,1-1.79.26,3.51,3.51,0,0,1-3-1.46,6.88,6.88,0,0,1-1.06-4.07,8.14,8.14,0,0,1,.06-1,7.75,7.75,0,0,1,.19-1c2.91-.61,5-1.46,6.21-2.57a5.11,5.11,0,0,0,1.85-3.93,4,4,0,0,0-1-2.76,3.81,3.81,0,0,0-3-1.14,3.93,3.93,0,0,0-2.88,1,3.63,3.63,0,0,0-1.06,2.73,7.38,7.38,0,0,0,.12,1.4,6.37,6.37,0,0,0,.36,1.2,4.62,4.62,0,0,1-1.69,1.56,5.48,5.48,0,0,1-2.85.71,5,5,0,0,1-4.09-1.75,6.67,6.67,0,0,1-1.49-4.49,9.22,9.22,0,0,1,1-4.29,10.65,10.65,0,0,1,2.76-3.38,13.16,13.16,0,0,1,4.18-2.24,16.54,16.54,0,0,1,5.27-.81,15.69,15.69,0,0,1,5.55.94,13.3,13.3,0,0,1,4.33,2.6,11.9,11.9,0,0,1,2.82,3.84,11.09,11.09,0,0,1,1,4.71,11.91,11.91,0,0,1-.88,4.81,11.26,11.26,0,0,1-2.27,3.44,14.1,14.1,0,0,1,3.06,3.71,10.28,10.28,0,0,1,1.12,5.07,12.29,12.29,0,0,1-1.21,5.52,12.57,12.57,0,0,1-3.3,4.2,14.89,14.89,0,0,1-4.94,2.63,20.13,20.13,0,0,1-6.19.91,23.41,23.41,0,0,1-6.91-1.07,22.24,22.24,0,0,1-6.45-3.25,23.13,23.13,0,0,1-5.36-5.56,26.71,26.71,0,0,1-3.7-8,23.22,23.22,0,0,1-.73-3.47A31.49,31.49,0,0,1,404.15,407.2Z" transform="translate(-224.75 -118.54)"/><path class="cls-2" d="M504,391.08a3,3,0,0,1,2.28.91,4.24,4.24,0,0,1,.88,3,7.23,7.23,0,0,1-.31,2.14,13.14,13.14,0,0,1-.6,1.63H486.28a8.15,8.15,0,0,0,3.15,3.54,10.19,10.19,0,0,0,5.51,1.33c.77,0,1.38,0,1.82,0a11.8,11.8,0,0,0,1.46-.16,5.44,5.44,0,0,1,1,1.1,11.49,11.49,0,0,1,.88,1.6c.26.58.49,1.18.69,1.78a7.84,7.84,0,0,1,.37,1.69,23.06,23.06,0,0,0-2.43,5.79,27.7,27.7,0,0,0-.76,4,47.24,47.24,0,0,0,0,10.36c.21,1.61.43,3.17.67,4.68a4.18,4.18,0,0,1-1.79,1.4,6,6,0,0,1-2.45.49,5.55,5.55,0,0,1-4.73-2.6c-1.21-1.73-1.82-4.51-1.82-8.32a28.83,28.83,0,0,1,.37-4.81,31.35,31.35,0,0,1,.9-4,25.93,25.93,0,0,1,1.16-3.12c.4-.89.76-1.61,1.09-2.18a16.25,16.25,0,0,1-8.82-3.47,17.17,17.17,0,0,1-5.3-7.06A9.89,9.89,0,0,0,472.4,403a4.67,4.67,0,0,0-1.58,3.47,3.26,3.26,0,0,0,1,2.44,4.27,4.27,0,0,0,3.09,1,8.09,8.09,0,0,0,2.18-.29,16.31,16.31,0,0,0,1.94-.69,18.18,18.18,0,0,1,3.55,4.52,12.17,12.17,0,0,1,1.48,6.08,13.15,13.15,0,0,1-1,5.3,11.36,11.36,0,0,1-2.88,4,12.85,12.85,0,0,1-4.48,2.56,17.77,17.77,0,0,1-5.85.91,21.14,21.14,0,0,1-7.27-1.23,18.83,18.83,0,0,1-6.12-3.64,22.63,22.63,0,0,1-4.73-6,30.51,30.51,0,0,1-3.09-8.16,19.85,19.85,0,0,1-.43-2.73q-.12-1.36-.12-2.73a5.21,5.21,0,0,1,1.49-3.83,5.09,5.09,0,0,1,3.78-1.5,6.37,6.37,0,0,1,2.25.33,10.63,10.63,0,0,1,1.51.71l.31,3.32a30.43,30.43,0,0,0,1.84,8.58,15.41,15.41,0,0,0,3.19,5.13,9.55,9.55,0,0,0,3.81,2.47,11.89,11.89,0,0,0,3.7.65,5,5,0,0,0,3.34-1.1,4,4,0,0,0,1.33-3.25,4.53,4.53,0,0,0-.15-1.2c-.1-.37-.2-.66-.28-.88a6.56,6.56,0,0,1-1.15.13h-.91a12.55,12.55,0,0,1-4-.62,9.35,9.35,0,0,1-3.27-1.88,8.85,8.85,0,0,1-2.24-3.16,10.93,10.93,0,0,1-.82-4.42,9.55,9.55,0,0,1,5.33-8.64H446.82a3,3,0,0,1-2.27-.91,4.19,4.19,0,0,1-.88-3,7.3,7.3,0,0,1,.3-2.15,11.42,11.42,0,0,1,.61-1.62Z" transform="translate(-224.75 -118.54)"/><path class="cls-2" d="M541,391.08a3,3,0,0,1,2.27.91,4.24,4.24,0,0,1,.88,3,6.92,6.92,0,0,1-.31,2.14,13.14,13.14,0,0,1-.6,1.63h-7.33v33.86a10.55,10.55,0,0,1-1.46.33,13.9,13.9,0,0,1-2.42.19,11.7,11.7,0,0,1-2.22-.19,4.3,4.3,0,0,1-1.72-.72,3.19,3.19,0,0,1-1.12-1.49,6.48,6.48,0,0,1-.4-2.47v-9a13.14,13.14,0,0,0-3.51-4.62,6.59,6.59,0,0,0-4.07-1.56,4,4,0,0,0-2.9,1.11,3.64,3.64,0,0,0-1.16,2.73,6.16,6.16,0,0,0,.19,1.66,15,15,0,0,0,.54,1.59,5.65,5.65,0,0,1-1.79,1.75,5.21,5.21,0,0,1-2.88.72,6,6,0,0,1-2.21-.42,5.09,5.09,0,0,1-1.88-1.34,6.62,6.62,0,0,1-1.3-2.3,10.17,10.17,0,0,1-.49-3.29,11.7,11.7,0,0,1,.91-4.68,9.58,9.58,0,0,1,2.55-3.47A11.34,11.34,0,0,1,512.4,405a15.37,15.37,0,0,1,4.91-.75,12.21,12.21,0,0,1,3,.36,17.38,17.38,0,0,1,2.64.88,12.09,12.09,0,0,1,2.12,1.17,9.62,9.62,0,0,1,1.45,1.23v-9.16H504a3,3,0,0,1-2.27-.91,4.24,4.24,0,0,1-.88-3,7.3,7.3,0,0,1,.3-2.15,14.55,14.55,0,0,1,.61-1.62Z" transform="translate(-224.75 -118.54)"/><path class="cls-3" d="M402.21,230.66a67.94,67.94,0,0,1-14.51-5,50.54,50.54,0,0,1-12.18-8.79,41.92,41.92,0,0,1-9.83-15.06q-3.75-9.28-3.75-22.85,2.34-33.63,31.84-51.22t69.3-1.51q15.92,8,23.18,19.08a50.4,50.4,0,0,1,8.43,22.85,73.46,73.46,0,0,1-.94,22.1A122.23,122.23,0,0,1,486,213.59a80,80,0,0,1,16.62,6,59.53,59.53,0,0,1,13.58,10,57.43,57.43,0,0,1,11.71,16.82q4.9,10.29,4.91,25.36-.95,29.13-13.11,47.45a85.14,85.14,0,0,1-30,28.12,123.21,123.21,0,0,1-35.58,13.31q-17.81,3.51-28.1,3.51a264,264,0,0,1-26.69-1.75q-16.39-1.75-36.29-9.29t-41-23.86Q301.08,313,281.41,284.39q-6.09-9-11.48-16.32t-10.06-12.8q-4.69-5.52-8.43-9.8a98.3,98.3,0,0,0-7-7.28,68.42,68.42,0,0,0-7.26-5.77q-4-2.76-12.41-4.27a299.74,299.74,0,0,1,28.56-17.83,163.38,163.38,0,0,1,27.63-11.55,68.19,68.19,0,0,1,30-2.76,52.79,52.79,0,0,1,32.77,18.08,204.71,204.71,0,0,1,23.41,33.14,202.63,202.63,0,0,0,23.42,32.64q20.6,18.58,45.88,19.59t37.93-18.58q7-13.56-.93-25.86t-20.14-13.31a30.9,30.9,0,0,0-10.3,1.5,24,24,0,0,0-7,3.77,37,37,0,0,0-5.62,5.78l-10.77-19.09a156.08,156.08,0,0,0,17.32-16.57A62.9,62.9,0,0,0,447.16,201q6.09-17.57,1.88-32.13t-19.2-17.08q-21.54-1-28.56,8.54t-3.75,19.08A15.35,15.35,0,0,0,401,185a9.24,9.24,0,0,0,4.68,2.52,26.15,26.15,0,0,0,4.92.5,15.17,15.17,0,0,0,5.15-1Z" transform="translate(-224.75 -118.54)"/><path class="cls-4" d="M224.75,228.15s13.58-2,35.12,27.12l10.06,12.8,11.48,16.32,4.46,6.54s21.83,29.11,31,34.47c0,0,34.09,29.49,70.47,34.85,0,0,33.32,7.25,58.6,2.48,0,0,41.36-8.61,57.44-25.08l6.51-5.74s16.47-19.53,18.39-30.64c0,0,10-29.11,0-52.85A54.63,54.63,0,0,0,486,213.59s-15.18,3.81-20.54,14.53c0,0,39.45,20.3,31.79,47.11,0,0-12.64,63.19-86.94,46,0,0-44.81-12.64-78.51-64.34S224.75,228.15,224.75,228.15Z" transform="translate(-224.75 -118.54)"/><path d="M594.84,297.91c-.27,1.28-.45,2.58-.82,3.83-3.14,10.77-10.5,17.36-21.06,20.1-12.71,3.3-24,.28-32.93-9.58a24.46,24.46,0,0,1-6.37-16.71,3.75,3.75,0,0,1,1.93-3.53,3.69,3.69,0,0,0,1.29-1.45q5.91-11.76,11.74-23.55c3.07-6.21,6.09-12.44,9.13-18.66.18-.37.33-.75.55-1.24H530.73c-.13.36-.27.73-.39,1.12A16.71,16.71,0,0,1,518.8,260c-.83.26-1.2.52-1.2,1.46q0,31.48,0,63a2.2,2.2,0,0,0,0,.38c2.59.75,5.22,1.29,7.67,2.27,7.87,3.13,12.76,8.9,14.72,17.18a1.63,1.63,0,0,0,1.18,1c2.25.1,4.52,0,6.77.05,2.51,0,3.92,1.41,3.93,3.9q0,6.8,0,13.58a3.67,3.67,0,0,1-4,4h-67.6a3.65,3.65,0,0,1-3.95-3.93q0-6.87,0-13.73a3.52,3.52,0,0,1,3.83-3.83c2.58,0,5.15,0,7.75,0,2.77-12.17,10.8-18.38,22.75-20.28v-1.6q0-30.69,0-61.39a1.87,1.87,0,0,0-1.57-2.16,16.44,16.44,0,0,1-11.11-11.32c-.14-.44-.28-.89-.43-1.39H470c.26.59.45,1.11.7,1.6,2.64,5.31,5.3,10.62,7.93,15.94,4.25,8.61,8.47,17.24,12.74,25.84a4.62,4.62,0,0,0,1.51,1.66,3.76,3.76,0,0,1,1.75,3.47c-.27,10.14-5.15,17.6-13.57,22.79-13.85,8.53-32.74,5.15-42.3-7.43a25.57,25.57,0,0,1-5.31-15.37,3.73,3.73,0,0,1,2-3.62,3,3,0,0,0,1.11-1.21q6-12,11.95-24c4-8.14,8-16.3,12-24.45,1.24-2.52,2.32-3,5-2.38a4.92,4.92,0,0,0,1.09.1H497c.21,0,.41,0,.66-.05,2.85-8.08,7.89-13.62,17-13.39,8.61.21,13.32,5.66,16,13.4h30.22a11.52,11.52,0,0,0,2-.18c2.36-.44,3.63.16,4.72,2.36q8.37,16.95,16.72,33.9c2.28,4.62,4.55,9.24,6.92,13.81a14.34,14.34,0,0,0,2,2.4c.5.59,1,1.2,1.47,1.8Zm-110.67-6.19L464.11,251l-20.06,40.73Zm100.14,0L564.25,251c-6.77,13.77-13.36,27.15-20,40.71ZM487.21,299h-46c-.51,7.62,10.21,16.17,21.34,17.11C474,317.06,486.25,308.64,487.21,299Zm53.9,0a16.22,16.22,0,0,0,4.18,8.74c6.89,7.59,15.52,9.83,25.3,7.61,7.12-1.61,12.56-5.65,15.68-12.44a35.28,35.28,0,0,0,1.25-3.91ZM523.88,243.8a9.73,9.73,0,1,0-9.61,9.8A9.76,9.76,0,0,0,523.88,243.8Z" transform="translate(-224.75 -118.54)"/><path class="cls-5" d="M487.21,299c-1,9.68-13.17,18.1-24.68,17.11-11.13-.94-21.85-9.49-21.34-17.11Z" transform="translate(-224.75 -118.54)"/><path class="cls-5" d="M541.11,298.94h46.41a35.28,35.28,0,0,1-1.25,3.91c-3.12,6.79-8.56,10.83-15.68,12.44-9.78,2.22-18.41,0-25.3-7.61A16.22,16.22,0,0,1,541.11,298.94Z" transform="translate(-224.75 -118.54)"/><path class="cls-6" d="M523.88,243.8a9.71,9.71,0,0,1-9.61,9.8,9.79,9.79,0,1,1,9.61-9.8Z" transform="translate(-224.75 -118.54)"/><path class="cls-7" d="M495.1,345.35h38s-2.81-13.4-19-13.27C514.12,332.08,498.67,332.33,495.1,345.35Z" transform="translate(-224.75 -118.54)"/><rect class="cls-7" x="258.48" y="233.83" width="61.66" height="8.04"/></svg>